<?xml version="1.0" standalone="no"?>
<!DOCTYPE svg PUBLIC "-//W3C//DTD SVG 20010904//EN"
 "http://www.w3.org/TR/2001/REC-SVG-20010904/DTD/svg10.dtd">
<svg version="1.0" xmlns="http://www.w3.org/2000/svg"
 width="64.000000pt" height="64.000000pt" viewBox="0 0 64.000000 64.000000"
 preserveAspectRatio="xMidYMid meet">

<g transform="translate(0.000000,64.000000) scale(0.100000,-0.100000)"
fill="#8c8c8e" stroke="none">
<path d="M100 621 c-19 -10 -48 -35 -65 -55 l-30 -38 0 -208 0 -208 30 -38
c56 -69 76 -74 285 -74 209 0 229 5 285 74 l30 38 0 208 0 208 -30 38 c-56 69
-76 74 -285 74 -161 0 -190 -2 -220 -19z m431 -36 c62 -32 69 -60 69 -263 0
-204 -6 -227 -63 -262 -29 -18 -51 -20 -217 -20 -206 0 -232 7 -265 69 -22 44
-22 378 0 422 32 62 60 69 263 69 146 0 189 -3 213 -15z"/>
<path d="M472 544 c-30 -21 -29 -59 3 -80 23 -15 27 -15 50 0 32 21 33 59 3
80 -12 9 -25 16 -28 16 -3 0 -16 -7 -28 -16z m38 -39 c0 -8 -4 -15 -10 -15 -5
0 -10 7 -10 15 0 8 5 15 10 15 6 0 10 -7 10 -15z"/>
<path d="M229 467 c-55 -37 -79 -81 -79 -147 0 -102 68 -170 170 -170 102 0
170 68 170 170 0 66 -24 110 -79 147 -47 32 -135 32 -182 0z m167 -33 c72 -48
81 -147 19 -209 -56 -56 -134 -56 -190 0 -56 57 -56 134 1 190 18 19 43 36 56
38 34 7 88 -2 114 -19z"/>
</g>
</svg>
